<svg width="54" height="44" viewBox="0 0 54 44" fill="none" xmlns="http://www.w3.org/2000/svg">
<path d="M0.357112 19.7409C-0.179326 26.1782 1.69821 31.5425 5.72149 36.3705C9.74477 41.1984 15.1092 43.3442 21.5464 43.3442H48.3683C49.7094 43.3442 51.0505 42.8077 52.1234 41.7349C53.1962 40.662 53.7327 39.3209 53.7327 37.9798V35.834C53.7327 34.2247 53.4645 32.3472 53.1962 29.9332H31.2023C28.5201 29.9332 26.3743 28.8604 24.4968 26.9828C22.6193 25.1053 21.5464 22.6913 21.5464 20.2773C21.5464 15.9858 23.4239 13.0354 27.4472 11.4261L40.3217 5.79352C35.762 2.5749 30.3976 0.697364 24.2286 0.429145C18.3278 -0.107293 12.9634 1.77024 8.13546 5.52531C3.30752 9.28037 0.89355 13.8401 0.357112 19.7409ZM26.9108 20.2773C26.9108 21.3502 27.4472 22.4231 28.2519 23.2278C29.0565 24.0324 30.1294 24.5689 31.2023 24.5689H52.1234C50.5141 18.668 48.1001 13.8401 44.6132 10.085L29.593 16.2541C27.7154 16.7905 26.9108 18.1316 26.9108 20.2773Z" fill="black"/>
</svg>
