<svg width="10" height="11" viewBox="0 0 10 11" fill="none" xmlns="http://www.w3.org/2000/svg">
<path d="M9.4472 4.61057L6.77879 7.27888C6.04175 8.01602 4.84762 8.01602 4.11052 7.27888L3.22112 6.38937L4.11052 5.50007L4.99998 6.38937C5.24566 6.63457 5.64429 6.63507 5.88949 6.38937L8.55772 3.72116C8.8028 3.47577 8.8028 3.07682 8.55772 2.83137L7.66832 1.94196C7.42311 1.69693 7.02401 1.69693 6.77879 1.94196L5.82619 2.89473C5.38457 2.63482 4.88265 2.52336 4.38573 2.55684L5.88949 1.05256C6.62653 0.315813 7.82124 0.315813 8.55772 1.05256L9.44722 1.94196C10.1843 2.67875 10.1843 3.87382 9.4472 4.61057ZM4.17322 8.10574L3.22114 9.05776C2.97546 9.30346 2.57683 9.30286 2.33173 9.05776L1.44227 8.16836C1.19659 7.92318 1.19659 7.52453 1.44227 7.27886L4.11054 4.61054C4.35568 4.36551 4.75495 4.36551 5 4.61054L5.88951 5.50005L6.77881 4.61054L5.88951 3.72114C5.15237 2.98439 3.95824 2.98439 3.22116 3.72114L0.552825 6.38937C-0.184275 7.12662 -0.184275 8.32133 0.552825 9.05776L1.44227 9.94719C2.17879 10.6843 3.37348 10.6843 4.11054 9.94719L5.61419 8.44347C5.11732 8.4766 4.61671 8.36499 4.17322 8.10574Z" fill="#797979"/>
</svg>
