<svg width="54" height="54" viewBox="0 0 54 54" fill="none" xmlns="http://www.w3.org/2000/svg">
<path d="M21.5378 24.5039C22.227 19.5045 25.5238 16.1969 30.4338 15.6112L41.5456 4.41007C38.446 2.39575 34.9061 1.00052 31.0972 0.414856L10.8036 20.7435L18.0179 27.9903L21.5378 24.5039Z" fill="black"/>
<path d="M53.735 26.8374C53.735 18.6515 50.0522 11.3294 44.2574 6.42523L34.9336 15.8393C39.7116 16.9563 42.6667 20.893 42.6667 26.5116C42.6667 28.5936 41.4929 31.4634 39.9748 34.3048L48.4615 42.779C51.7741 38.3284 53.735 32.8118 53.735 26.8374Z" fill="black"/>
<path d="M24.7343 26.5116C24.7343 28.5852 27.2783 34.1051 32.0246 40.6652C36.3239 34.6499 39.3257 28.8835 39.3257 26.5116C39.3257 21.6408 36.6664 18.8478 32.0304 18.8478C27.3944 18.8478 24.7343 21.6416 24.7343 26.5116ZM31.7781 23.0594C33.6805 23.0594 35.2227 24.6017 35.2227 26.504C35.2227 28.4064 33.6805 29.9487 31.7781 29.9487C29.8757 29.9487 28.3335 28.4064 28.3335 26.504C28.3335 24.6017 29.8757 23.0594 31.7781 23.0594Z" fill="black"/>
<path d="M27 53.5724C34.5844 53.5724 41.4269 50.4085 46.2927 45.3355L38.2521 37.3075C36.0716 40.8799 33.8066 43.9027 33.3404 44.5226L32.0312 46.2411L30.7304 44.5226C29.8991 43.4356 23.4785 34.8654 21.7984 28.977L6.55444 44.0564C11.4586 49.8738 18.7957 53.5724 27 53.5724Z" fill="black"/>
<path d="M15.6443 30.3422L2.20414 16.841C0.957618 19.9297 0.265015 23.3017 0.265015 26.8374C0.265015 32.1852 1.84154 37.1613 4.54512 41.3395L15.6443 30.3422Z" fill="black"/>
<path d="M3.74561 13.6529L8.44679 18.3749L26.6792 0.110748C16.8449 0.226878 8.29223 5.65074 3.74561 13.6529Z" fill="black"/>
</svg>
