<svg width="54" height="44" viewBox="0 0 54 44" fill="none" xmlns="http://www.w3.org/2000/svg">
<path d="M1.93573 36.88H21.9871C22.9108 36.88 23.6584 36.3183 23.6584 35.6267V33.1199C23.6584 32.4283 22.9108 31.8672 21.9871 31.8672H1.93573C1.01226 31.8672 0.264999 32.4282 0.264999 33.1199V35.6267C0.264999 36.3183 1.01226 36.88 1.93573 36.88ZM1.93573 43.5639H21.9871C22.9108 43.5639 23.6584 43.0024 23.6584 42.3106V39.8038C23.6584 39.1121 22.9108 38.551 21.9871 38.551H1.93573C1.01226 38.551 0.264999 39.1121 0.264999 39.8038V42.3106C0.264999 43.0024 1.01226 43.5639 1.93573 43.5639ZM1.93573 30.1955H21.9871C22.9108 30.1955 23.6584 29.6345 23.6584 28.9428V26.4371C23.6584 25.7448 22.9108 25.1831 21.9871 25.1831H1.93573C1.01226 25.183 0.264999 25.7447 0.264999 26.437V28.9427C0.264999 29.6345 1.01226 30.1955 1.93573 30.1955ZM26.9268 29.5305C26.9527 29.3345 27.0001 29.1452 27.0001 28.9427V26.437C27.0001 23.8583 24.7985 21.8413 21.9871 21.8413H15.3034C15.3034 17.2267 19.0437 13.4869 23.6584 13.4869C28.273 13.4869 32.013 17.2267 32.013 21.8413C32.0131 25.2942 29.9162 28.2571 26.9268 29.5305ZM0.264999 6.80294H47.0515V36.88H26.801C26.9202 36.482 27.0001 36.0639 27.0001 35.6267V33.5381H37.0259C37.0259 29.8469 40.0187 26.8542 43.7094 26.8542V16.8287C40.0187 16.8287 37.0259 13.8359 37.0259 10.145H10.2907C10.2907 13.836 7.29826 16.8287 3.60702 16.8287V21.8413H1.93573C1.34341 21.8413 0.788777 21.9491 0.264999 22.1122V6.80294ZM53.735 0.119232V33.5381H50.3935V3.46114H3.60702V0.119232H53.735Z" fill="black"/>
</svg>
