<svg width="81" height="90" viewBox="0 0 81 90" fill="none" xmlns="http://www.w3.org/2000/svg">
<path d="M78.196 58.5441C76.468 56.4001 74.42 55.1841 71.828 54.5761C65.876 53.1361 60.484 51.3121 54.5 50.0001L38.5161 54.3841C38.5161 54.3841 46.4201 76.592 45.4921 78.288L43.0921 58.4481L44.5001 54.9921C44.5001 53.8401 43.5721 52.9121 42.4201 52.9121H38.5161C37.3641 52.9121 36.4361 53.8401 36.4361 54.9921L37.8441 58.4481L35.3801 78.992C34.0681 77.04 54.5 50.0001 54.5 50.0001H26.9961C26.8681 49.5521 11.3161 53.8081 9.78015 54.3841C5.07616 56.1441 0.468166 59.2801 0.500166 64.848C0.500166 64.88 1.20416 81.616 1.20416 81.616C1.20416 86.64 3.06016 90 10.2921 90H70.708C77.012 90 79.796 86.64 79.796 81.616L80.5 64.88C80.5 62.608 79.636 60.3041 78.196 58.5441Z" fill="#8CC63F"/>
<path d="M24.3721 29.2641C26.9961 40.4321 35.156 46.8961 40.5 46.8961C45.972 46.8961 54.452 42.0641 56.82 29.2641C58.164 29.1681 59.316 28.2081 60.052 25.2641C60.98 21.4561 59.764 19.4722 57.908 19.7921C57.78 19.8242 57.652 19.8562 57.524 19.8562C57.588 18.0002 57.716 15.7602 57.684 13.9682C57.78 8.24017 56.852 3.15219 48.692 2.09619C48.212 1.96819 47.7 1.87219 47.156 1.77619C45.268 1.20019 43.092 0.208191 40.5 0.208191C24.8201 0.208191 23.2201 6.60818 23.3161 13.8082C23.2841 15.6642 23.4121 17.9362 23.4761 19.8562C23.3481 19.8242 23.2201 19.7921 23.0601 19.7921C21.2361 19.4722 19.9881 21.4561 20.9161 25.2641C21.7161 28.3361 22.9641 29.2641 24.3721 29.2641Z" fill="#8CC63F"/>
</svg>
