<svg width="54" height="60" viewBox="0 0 54 60" fill="none" xmlns="http://www.w3.org/2000/svg">
<path d="M44.4441 14.1863H34.2495V4.34412C34.2495 3.21771 33.802 2.13744 33.0055 1.34094C32.2091 0.544454 31.1288 0.0969883 30.0024 0.0969849H4.5121C3.3857 0.0969883 2.30542 0.544454 1.50894 1.34095C0.712447 2.13744 0.264984 3.21771 0.264984 4.34412V55.339C0.264984 55.8968 0.37484 56.4491 0.58828 56.9643C0.80172 57.4796 1.11456 57.9478 1.50895 58.3422C1.90334 58.7366 2.37154 59.0494 2.88683 59.2629C3.40212 59.4763 3.9544 59.5862 4.51214 59.5862H30.0024C31.1288 59.5862 32.2091 59.1387 33.0056 58.3422C33.8021 57.5457 34.2495 56.4654 34.2495 55.339V47.1845H46.0779V45.6257H34.2495V43.8147H41.9401V42.2559H34.2495V39.5509H44.4441C45.2347 39.55 45.9927 39.2355 46.5518 38.6765C47.1109 38.1174 47.4253 37.3594 47.4262 36.5687V17.1686C47.4253 16.3779 47.1109 15.6199 46.5518 15.0608C45.9927 14.5018 45.2347 14.1873 44.4441 14.1863V14.1863ZM20.2295 56.9606H14.2849V55.4017H20.2295V56.9606ZM32.2698 51.726C32.2698 52.0705 32.133 52.4009 31.8894 52.6446C31.6457 52.8882 31.3153 53.025 30.9708 53.025H3.54361C3.19908 53.025 2.86867 52.8882 2.62506 52.6446C2.38145 52.4009 2.24459 52.0705 2.24459 51.726V7.95713C2.24459 7.61261 2.38145 7.2822 2.62506 7.03859C2.86867 6.79497 3.19908 6.65811 3.54361 6.65811H30.9708C31.3153 6.65811 31.6457 6.79497 31.8894 7.03859C32.133 7.2822 32.2698 7.61261 32.2698 7.95713V14.1863H15.8962V11.9056H14.2074V42.2559H15.8962V39.5509H32.2698V51.726ZM45.8674 36.5688C45.867 36.9461 45.7169 37.3079 45.4501 37.5748C45.1832 37.8416 44.8214 37.9917 44.4441 37.9922H15.8962V15.7451H44.4441C44.8214 15.7456 45.1832 15.8957 45.4501 16.1625C45.7169 16.4294 45.867 16.7912 45.8674 17.1685V36.5688Z" fill="black"/>
<path d="M40.1317 18.5679C39.4824 18.5673 38.8555 18.8054 38.3703 19.2369C38.7494 19.8297 38.9509 20.5187 38.9509 21.2224C38.9509 21.9261 38.7494 22.6151 38.3703 23.208C38.6918 23.4931 39.0778 23.6959 39.495 23.7989C39.9122 23.902 40.3482 23.9022 40.7655 23.7995C41.1828 23.6968 41.5689 23.4944 41.8907 23.2095C42.2125 22.9246 42.4603 22.5659 42.6128 22.1641C42.7653 21.7624 42.818 21.3296 42.7663 20.9029C42.7147 20.4763 42.5602 20.0686 42.3161 19.7148C42.0721 19.3611 41.7458 19.0719 41.3653 18.8721C40.9848 18.6723 40.5615 18.5679 40.1317 18.5679V18.5679Z" fill="black"/>
<path d="M35.2571 23.8764C36.7229 23.8764 37.9111 22.6882 37.9111 21.2224C37.9111 19.7566 36.7229 18.5683 35.2571 18.5683C33.7913 18.5683 32.603 19.7566 32.603 21.2224C32.603 22.6882 33.7913 23.8764 35.2571 23.8764Z" fill="black"/>
<path d="M23.7657 33.7173H17.5615V35.2762H23.7657V33.7173Z" fill="black"/>
<path d="M42.5147 33.7173H27.9995V35.2762H42.5147V33.7173Z" fill="black"/>
<path d="M42.5146 29.907H17.5615V31.4659H42.5146V29.907Z" fill="black"/>
<path d="M18.3137 19.1405H20.9732C21.1727 19.1405 21.364 19.2197 21.505 19.3608C21.6461 19.5019 21.7253 19.6932 21.7253 19.8926V22.5522C21.7253 22.7517 21.6461 22.943 21.505 23.084C21.364 23.2251 21.1727 23.3043 20.9732 23.3043H18.3136C18.1141 23.3043 17.9228 23.2251 17.7818 23.084C17.6407 22.943 17.5615 22.7517 17.5615 22.5522V19.8926C17.5615 19.7939 17.5809 19.6961 17.6187 19.6048C17.6565 19.5135 17.712 19.4306 17.7818 19.3608C17.8516 19.2909 17.9346 19.2355 18.0258 19.1977C18.1171 19.1599 18.2149 19.1405 18.3137 19.1405V19.1405Z" fill="black"/>
<path d="M53.735 45.6257H48.3191V47.1845H53.735V45.6257Z" fill="black"/>
</svg>
