<svg width="20" height="20" viewBox="0 0 20 20" fill="none" xmlns="http://www.w3.org/2000/svg">
<path d="M19.91 15.9411L19.8105 15.6412C19.5747 14.9404 18.8019 14.2095 18.092 14.017L15.4644 13.2992C14.7518 13.1053 13.7354 13.366 13.2141 13.8873L12.2631 14.8382C8.80707 13.9044 6.09701 11.1942 5.16441 7.73888L6.11542 6.78787C6.63675 6.26653 6.89738 5.25143 6.70353 4.53888L5.98703 1.91001C5.79317 1.19876 5.06096 0.425969 4.36152 0.192796L4.06158 0.0919481C3.3608 -0.141225 2.36138 0.0945887 1.84008 0.615886L0.417572 2.0397C0.163441 2.29249 0.00102071 3.01552 0.00102071 3.01816C-0.0487324 7.5345 1.72218 11.8858 4.91686 15.0805C8.1037 18.2673 12.4387 20.0357 16.9419 19.9977C16.9655 19.9977 17.7094 19.8379 17.9636 19.585L19.3861 18.1625C19.9074 17.6413 20.1432 16.6419 19.91 15.9411Z" fill="white"/>
</svg>
